<svg xmlns="http://www.w3.org/2000/svg" viewBox="0 0 544.2 544.2" width="544.2" height="544.2"><path d="M272.1 307.7c-12.3 0-22.3 10-22.3 22.3v26.7c0 12.3 10 22.3 22.3 22.3s22.3-10 22.3-22.3V330c0-12.3-10-22.3-22.3-22.3z" fill="#52479b"/><path d="M272.1 0C2.1 0 0 121.8 0 272.1s2.1 272.1 272.1 272.1 272.1-121.8 272.1-272.1S542.1 0 272.1 0zm124.7 387.9c0 14.8-12 26.7-26.7 26.7h-196c-14.8 0-26.7-12-26.7-26.7v-89.1c0-14.8 12-26.7 26.7-26.7h13.4V215c0-46.8 37.6-85.3 84.3-85.4 46.8-.2 84.9 37.9 84.9 84.6v8.9c0 7.4-6 13.4-13.4 13.4h-17.8c-7.4 0-13.4-6-13.4-13.4v-8.9c0-22.2-18.2-40.3-40.5-40.1-22 .2-39.7 18.5-39.7 40.6v57.4h138c14.8 0 26.7 12 26.7 26.7v89.1z" fill="#52479b"/><path d="M370.1 272.1H232v-57.4c0-22 17.6-40.4 39.7-40.6 22.3-.2 40.5 17.9 40.5 40.1v8.9c0 7.4 6 13.4 13.4 13.4h17.8c7.4 0 13.4-6 13.4-13.4v-8.9c0-46.8-38.1-84.8-84.9-84.6-46.8.2-84.3 38.7-84.3 85.4v57.1h-13.4c-14.8 0-26.7 12-26.7 26.7v89.1c0 14.8 12 26.7 26.7 26.7h195.9c14.8 0 26.7-12 26.7-26.7v-89.1c0-14.7-12-26.7-26.7-26.7zm-75.7 84.6c0 12.3-10 22.3-22.3 22.3s-22.3-10-22.3-22.3V330c0-12.3 10-22.3 22.3-22.3s22.3 10 22.3 22.3v26.7z" fill="#fff"/></svg>